<?xml version="1.0" encoding="utf-8"?>
<!-- Generator: Adobe Illustrator 18.1.0, SVG Export Plug-In . SVG Version: 6.00 Build 0)  -->
<svg version="1.1" id="Слой_1" xmlns="http://www.w3.org/2000/svg" xmlns:xlink="http://www.w3.org/1999/xlink" x="0px" y="0px"
	 viewBox="-281 373 48 48" enable-background="new -281 373 48 48" xml:space="preserve">
<path fill="none" d="M-281,373h48v48h-48V373z M-263,402h4v11l6.9-13h-9.9L-263,402z M-255,398v-11l-5.9,11l-1.1,2h9.9l1.1-2H-255z"
	/>
<path d="M-252.1,400l-6.9,13v-11h-4l1.1-2h-5.1v14.3c0,1.5,1.2,2.7,2.7,2.7h14.7c1.5,0,2.7-1.2,2.7-2.7V400
	C-247,400-252.1,400-252.1,400z"/>
<g>
	<path display="none" fill-opacity="0.3" d="M-249.7,381h-3.3v-4h-8v4h-3.3c-1.5,0-2.7,1.2-2.7,2.7v21.5l5.1-5.2l6.9-13v11h4l-1.1,2
		l5.1,5.9l0-22.2C-247,382.2-248.2,381-249.7,381z"/>
	<path d="M-256,380v1v1.5l-1.6,3.1l-6.4,11.9V384h3h3v-3v-1H-256 M-250,384l0,11h-1h-1v-8v-3H-250 M-253,377h-8v4h-3.3
		c-1.5,0-2.7,1.2-2.7,2.7v21.5l5.1-5.2l6.9-13v11h4l-1.1,2l5.1,5.9l0-22.2c0-1.5-1.2-2.7-2.7-2.7h-3.3V377L-253,377z"/>
</g>
</svg>
