<?xml version="1.0" encoding="utf-8"?>
<!-- Generator: Adobe Illustrator 18.1.0, SVG Export Plug-In . SVG Version: 6.00 Build 0)  -->
<svg version="1.1" id="Слой_1" xmlns="http://www.w3.org/2000/svg" xmlns:xlink="http://www.w3.org/1999/xlink" x="0px" y="0px"
	 viewBox="-281 373 48 48" enable-background="new -281 373 48 48" xml:space="preserve">
<path fill="none" d="M-281,373h48v48h-48V373z"/>
<g>
	<path display="none" fill-opacity="0.3" d="M-247,383.7c0-1.5-1.2-2.7-2.7-2.7h-3.3v-4h-8v4h-3.3c-1.5,0-2.7,1.2-2.7,2.7v16h20
		V383.7z"/>
	<path d="M-256,380v1v3h3h3v12.6h-14V384h3h3v-3v-1H-256 M-253,377h-8v4h-3.3c-1.5,0-2.7,1.2-2.7,2.7v16h20v-16
		c0-1.5-1.2-2.7-2.7-2.7h-3.3V377L-253,377z"/>
</g>
<path d="M-267,395v19.3c0,1.5,1.2,2.7,2.7,2.7h14.7c1.5,0,2.7-1.2,2.7-2.7V395C-247,395-267,395-267,395z"/>
</svg>
