<?xml version="1.0" encoding="utf-8"?>
<!-- Generator: Adobe Illustrator 18.1.0, SVG Export Plug-In . SVG Version: 6.00 Build 0)  -->
<svg version="1.1" id="Слой_1" xmlns="http://www.w3.org/2000/svg" xmlns:xlink="http://www.w3.org/1999/xlink" x="0px" y="0px"
	 viewBox="-281 373 48 48" enable-background="new -281 373 48 48" xml:space="preserve">
<g>
	<path display="none" fill-opacity="0.3" d="M-249.7,381h-3.3v-4h-8v4h-3.3c-1.5,0-2.7,1.2-2.7,2.7v16.7h4.9l7.1-13.3v11h8l0-14.3
		C-247,382.2-248.2,381-249.7,381z"/>
	<path d="M-256,380v1v1.5l-1.6,3.1l-6.3,11.7h-0.1V384h3h3v-3v-1H-256 M-250,384l0,11h-2v-8v-3H-250 M-253,377h-8v4h-3.3
		c-1.5,0-2.7,1.2-2.7,2.7v16.7h4.9l7.1-13.3v11h8l0-14.3c0-1.5-1.2-2.7-2.7-2.7h-3.3V377L-253,377z"/>
</g>
<path d="M-255,398h4l-8,15v-11h-4l3.7-7h-7.7v19.3c0,1.5,1.2,2.7,2.7,2.7h14.7c1.5,0,2.7-1.2,2.7-2.7V395h-8L-255,398L-255,398z"/>
<path fill="none" d="M-281,373h48v48h-48V373z"/>
</svg>
