<?xml version="1.0" encoding="utf-8"?>
<!-- Generator: Adobe Illustrator 18.1.0, SVG Export Plug-In . SVG Version: 6.00 Build 0)  -->
<svg version="1.1" id="Слой_1" xmlns="http://www.w3.org/2000/svg" xmlns:xlink="http://www.w3.org/1999/xlink" x="0px" y="0px"
	 viewBox="-281 373 48 48" enable-background="new -281 373 48 48" xml:space="preserve">
<path d="M-259,413v-6h-8v7.3c0,1.5,1.2,2.7,2.7,2.7h14.7c1.5,0,2.7-1.2,2.7-2.7V407h-8.8C-255.8,407-259,413-259,413z"/>
<g>
	<path display="none" fill-opacity="0.3" d="M-249.7,381h-3.3v-4h-8v4h-3.3c-1.5,0-2.7,1.2-2.7,2.7v30l8-3.3V402h-4l8-15v11h4
		l-7.1,13.2l11.1,0.8v-28.3C-247,382.2-248.2,381-249.7,381z"/>
	<path d="M-256,380v1v1.5l-1.6,3.1l-6.4,11.9V384h3h3v-3v-1H-256 M-250,384v11h-1h-1v-8v-3H-250 M-250,402.5v6.3l-3.2-0.2
		L-250,402.5 M-262,405v3.3l-2,0.8V405h1H-262 M-253,377h-8v4h-3.3c-1.5,0-2.7,1.2-2.7,2.7v30l8-3.3V402h-4l8-15v11h4l-7.1,13.2
		l11.1,0.8v-28.3c0-1.5-1.2-2.7-2.7-2.7h-3.3V377L-253,377z"/>
</g>
<path fill="none" d="M-281,373h48v48h-48V373z"/>
</svg>
