<?xml version="1.0" encoding="utf-8"?>
<!-- Generator: Adobe Illustrator 18.1.0, SVG Export Plug-In . SVG Version: 6.00 Build 0)  -->
<svg version="1.1" id="Слой_1" xmlns="http://www.w3.org/2000/svg" xmlns:xlink="http://www.w3.org/1999/xlink" x="0px" y="0px"
	 viewBox="-281 373 48 48" enable-background="new -281 373 48 48" xml:space="preserve">
<g>
	<path display="none" fill-opacity="0.3" d="M-257,416l23.3-29c-0.9-0.7-9.9-8-23.3-8s-22.4,7.3-23.3,8L-257,416L-257,416
		C-257,416-257,416-257,416z"/>
	<path d="M-257,382c8.5,0,15.2,3.2,18.9,5.6l-18.9,23.6l-18.9-23.6C-272.2,385.2-265.5,382-257,382 M-257,379
		c-13.4,0-22.4,7.3-23.3,8l23.3,29l0,0l0,0l23.3-29C-234.6,386.3-243.6,379-257,379L-257,379z"/>
</g>
<path fill="none" d="M-281,373h48v48h-48V373z"/>
<path d="M-267.7,402.7L-257,416l0,0l0,0l10.6-13.3c-0.5-0.4-4.6-3.7-10.7-3.7S-267.1,402.3-267.7,402.7z"/>
</svg>
